<svg xmlns="http://www.w3.org/2000/svg" version="1.1" xmlns:xlink="http://www.w3.org/1999/xlink" width="1000" height="1000"><g clip-path="url(#SvgjsClipPath1166)"><rect width="1000" height="1000" fill="#ffffff"></rect><g transform="matrix(0.639269406392694,0,0,0.639269406392694,292.5570776255708,150)"><svg xmlns="http://www.w3.org/2000/svg" version="1.1" xmlns:xlink="http://www.w3.org/1999/xlink" width="649" height="1095"><svg width="649" height="1095" viewBox="0 0 649 1095" fill="none" xmlns="http://www.w3.org/2000/svg">
<path d="M45 8H209.935C209.962 8.00022 209.99 8.00201 210.018 8.00195L210.575 8C292.628 8.00005 395.788 20.8838 478.148 66.3438C559.912 111.475 621.5 188.799 621.5 319.5C621.5 444.715 564.982 520.873 488.479 566.712C465.134 580.7 452.459 609.453 462.707 635.923L617.776 1036.44C627.164 1060.69 609.273 1086.8 583.272 1086.8H438.412C422.695 1086.8 408.693 1076.87 403.494 1062.04L265.088 667.136C257.323 644.981 236.048 630.926 212.968 630.996L210.575 631C205.893 631 202 634.784 202 639.572V1049C202 1069.43 185.435 1086 165 1086H45C24.5655 1086 8 1069.43 8 1049V45C8 24.5655 24.5655 8 45 8ZM202.702 3.2793C202.782 3.4568 202.867 3.63141 202.959 3.80176C202.867 3.63144 202.782 3.45681 202.702 3.2793Z" fill="#3F9B0B" stroke="black" stroke-width="16"></path>
<path d="M121.796 345.286L110.613 356.47C100.361 299.151 119 228.784 153.951 194.765C157.99 197.567 160.313 198.917 164.669 200.357C164.268 215.792 165.831 223.762 170.727 237.172C152.573 270.672 148.931 288.835 149.291 320.588C133.943 328.514 128.206 334.028 121.796 345.286Z" fill="white"></path>
<path d="M421.439 178.455C407.826 160.276 396.685 151.314 373.44 136.514C410.003 150.621 425.909 160.83 446.138 183.115C440.249 184.209 434.559 182.99 421.439 178.455Z" fill="white"></path>
<path d="M317.053 502.797C303.485 507.528 295.54 509.289 279.772 510.254C301.774 513.742 315.256 513.775 336.16 510.254C330.165 508.824 324.822 507.348 317.053 502.797Z" fill="white"></path>
<path d="M205.678 157.018L201.018 152.359C257.125 123.271 296.034 118.368 351.072 129.524C325.714 129.753 311.491 130.038 292.821 134.185C257.645 136.167 237.115 142.886 205.678 157.018Z" fill="white"></path>
<path d="M148.357 438.954C172.013 451.07 178.772 454.332 195.186 468.779L215.463 492.079C215.463 492.079 185.162 474.718 173.944 465.983C162.727 457.247 148.357 438.954 148.357 438.954Z" fill="white"></path>
<path fill-rule="evenodd" clip-rule="evenodd" d="M169.261 237.814C178.693 231.437 233.818 220.628 242.14 228.951C263.38 250.191 275.25 269.164 266.887 303.302C261.017 327.275 216.811 364.207 200.577 365.016C182.488 365.92 150.905 334.453 146.473 313.782C143.788 301.261 158.583 243.711 169.261 237.814Z" fill="#280B0B" stroke="black"></path>
<path fill-rule="evenodd" clip-rule="evenodd" d="M242.366 229.176C248.49 205.765 292.333 179.983 300.381 179.107C314.286 177.586 376.479 195.854 382.575 202.587C391.945 212.936 408.295 267.314 406.062 280.87C380.993 292.342 353.602 326.624 346.314 337.049C309.964 319.453 275.99 310.391 265.846 308.384C263.559 288.246 250.771 247.396 242.366 229.176Z" fill="white" stroke="black"></path>
<path fill-rule="evenodd" clip-rule="evenodd" d="M302.003 178.758C295.085 159.812 295.085 151.599 291.976 133.784C336.949 122.537 383.307 127.989 422.397 178.066C414.438 187.662 410.636 193.114 386.074 205.395C366.005 191.039 325.874 183.511 302.003 178.758Z" fill="#280B0B" stroke="black"></path>
<path fill-rule="evenodd" clip-rule="evenodd" d="M164.665 200.895C164.747 191.553 203.844 163.018 207.906 154.195C249.332 133.263 293.011 133.784 293.011 133.784L302.004 178.408L241.119 228.574L170.199 237.218C170.199 237.218 160.775 222.69 164.665 200.895Z" fill="white" stroke="black"></path>
<path d="M126.118 405.378C102.682 358.845 99.0554 305.091 116.037 255.937C133.018 206.782 169.216 166.252 216.671 143.259C264.127 120.266 318.954 116.691 369.097 133.322C419.24 149.953 460.593 185.427 484.063 231.944C507.533 278.462 511.198 332.213 494.253 381.379C477.307 430.545 441.138 471.1 393.7 494.127C346.261 517.153 291.436 520.766 241.281 504.17C191.126 487.574 149.747 452.129 126.244 405.628" stroke="black" stroke-width="5.93789" stroke-linejoin="round"></path>
<path fill-rule="evenodd" clip-rule="evenodd" d="M163.884 201.121C163.884 201.121 157.767 200.628 150.671 193.292C160.699 180.572 180.884 164.181 204.001 150.236C207.549 155.866 208.892 152.681 208.892 152.681L163.884 201.121Z" fill="black" stroke="black"></path>
<path fill-rule="evenodd" clip-rule="evenodd" d="M384.534 205.525C415.357 191.456 411.686 190.723 421.72 177.634C440.556 184.607 446.18 182.531 446.18 182.531C446.18 182.531 471.495 203.08 482.386 233.409C493.27 263.746 489.722 303.863 489.722 303.863L463.303 325.391C463.303 325.391 445.323 297.623 406.062 280.869C403.494 258.732 399.213 233.286 384.534 205.525Z" fill="white" stroke="black"></path>
<path fill-rule="evenodd" clip-rule="evenodd" d="M406.062 280.87C406.062 280.87 375.486 294.692 345.883 338.598C352.486 376.64 356.89 392.907 360.075 417.367C399.46 418.346 428.2 415.291 439.817 407.093C458.29 373.462 461.468 364.283 463.304 325.878C443.125 298.234 406.062 280.87 406.062 280.87Z" fill="black" stroke="black"></path>
<path fill-rule="evenodd" clip-rule="evenodd" d="M438.843 408.071C438.843 408.071 445.199 421.894 443.24 452.593C448.624 444.155 453.761 446.353 458.412 444.764C511.002 378.598 502.933 322.946 502.933 322.946L490.214 304.843C490.214 304.843 479.57 314.261 463.302 326.371C466.117 358.536 438.843 408.071 438.843 408.071Z" fill="white" stroke="black"></path>
<path fill-rule="evenodd" clip-rule="evenodd" d="M481.893 230.478C506.969 271.815 503.421 323.432 503.421 323.432L489.235 302.884C489.235 302.884 493.516 264.479 481.893 230.478Z" fill="#280B0B" stroke="black"></path>
<path fill-rule="evenodd" clip-rule="evenodd" d="M442.459 451.368C442.459 451.368 416.171 466.936 382.266 497.725C427.239 479.389 445.404 461.224 456.302 447.217C452.322 442.888 442.459 451.368 442.459 451.368Z" fill="#280B0B" stroke="black"></path>
<path fill-rule="evenodd" clip-rule="evenodd" d="M438.308 408.119C445.576 425.332 443.5 451.709 443.5 451.709C443.5 451.709 406.739 472.552 381.923 497.724C355.717 512.512 338.676 510.868 338.676 510.868C338.676 510.868 326.915 508.704 317.23 503.601C310.654 491.238 305.723 481.895 302.695 466.936C340.491 439.86 354.245 429.394 360.471 417.462C390.917 418.674 415.13 418.585 438.308 408.119Z" fill="white"></path>
<path d="M338.676 510.868C338.676 510.868 355.717 512.512 381.923 497.724C406.739 472.552 443.5 451.709 443.5 451.709C443.5 451.709 445.576 425.332 438.308 408.119C415.13 418.585 390.917 418.674 360.471 417.462C354.245 429.394 340.491 439.86 302.695 466.936C305.723 481.895 310.654 491.238 317.23 503.601M338.676 510.868C338.676 510.868 326.915 508.704 317.23 503.601M338.676 510.868C338.676 510.868 326.839 508.664 317.23 503.601" stroke="black"></path>
<path fill-rule="evenodd" clip-rule="evenodd" d="M222.783 440.292C261.873 457.936 277.182 457.854 302.004 466.936C307.457 491.581 317.231 503.602 317.231 503.602C317.231 503.602 289.504 516.034 248.729 505.677C218.235 497.937 204.016 482.93 192.687 468.32C206.954 456.813 216.899 447.909 222.783 440.292Z" fill="#280B0B" stroke="black"></path>
<path fill-rule="evenodd" clip-rule="evenodd" d="M265.154 307.288C309.189 315.603 345.395 336.179 345.395 336.179C345.395 336.179 354.505 384.448 361.108 416.243C345.21 442.175 340.56 444.538 302.401 467.532C268.154 457.258 223.084 441.339 223.084 441.339C223.084 441.339 200.823 413.407 194.933 364.735C225.022 344.919 251.455 335.172 265.154 307.288Z" fill="white" stroke="black"></path>
<path fill-rule="evenodd" clip-rule="evenodd" d="M194.707 365.016C169.021 352.543 147.74 320.987 147.74 320.987C147.74 320.987 125.476 329.056 121.317 345.447C122.219 377.194 121.545 391.845 121.545 391.845C121.545 391.845 127.392 412.14 153.213 441.977C171.316 451.271 173.932 451.778 193.501 468.169C218.94 451.285 222.975 440.997 222.975 440.997C222.975 440.997 204.735 412.723 194.707 365.016Z" fill="white" stroke="black"></path>
<path fill-rule="evenodd" clip-rule="evenodd" d="M120.341 344.467L110.388 352.81L122.298 398.291L120.341 344.467Z" fill="#280B0B" stroke="black"></path>
</svg></svg></g></g><defs><clipPath id="SvgjsClipPath1166"><rect width="1000" height="1000" x="0" y="0" rx="500" ry="500"></rect></clipPath></defs></svg>